<?xml version="1.0" encoding="utf-8"?>
<!-- Generator: Adobe Illustrator 19.0.0, SVG Export Plug-In . SVG Version: 6.00 Build 0)  -->
<svg version="1.1" id="Layer_1" xmlns="http://www.w3.org/2000/svg" xmlns:xlink="http://www.w3.org/1999/xlink" x="0px" y="0px"
	 viewBox="0 0 640 89.4" style="enable-background:new 0 0 640 89.4;" xml:space="preserve">
<style type="text/css">
	.st0{fill:#FFFFFF;}
	.st1{fill:none;}
	.st2{fill:none;stroke:#FFFFFF;stroke-width:0.7709;stroke-miterlimit:10;}
	.st3{fill:#384650;stroke:#FFFFFF;stroke-width:1.5418;stroke-linecap:round;stroke-linejoin:round;stroke-miterlimit:10;}
</style>
<path id="XMLID_118_" class="st0" d="M117,17.3h110c0,0,0-18,0-10s-110,7-110,0S117,17.3,117,17.3"/>
<g id="XMLID_34_">
	<rect id="XMLID_158_" x="11.6" y="20.9" class="st1" width="644.1" height="68.6"/>
	<path id="XMLID_136_" class="st0" d="M83.3,13.8c-3.4,5.1-33,61.4-36.5,68.1h-0.2c-2-3-30.5-63.7-33.4-68.1l8.4-4.7
		C23,13.5,45.7,61,47.6,64c1.7-2.3,26.5-51.8,27.7-54.9L83.3,13.8z"/>
	<path id="XMLID_144_" class="st0" d="M104.4,53.7c0,8.3,0.3,23,0.4,25h-9.1c0.2-3.6,0.3-22.9,0.3-25.1v-8.9
		c0-1.5-0.3-21.9-0.5-23.8h9.4c-0.2,1.5-0.5,14-0.5,23.9V53.7z"/>
	<path id="XMLID_146_" class="st0" d="M140,78.7c0.5-2.1,0.6-26.2,0.6-39.4V27.8c-10,0-22.5,0.4-23.8,0.8v-7.9
		c2.5,0.7,23.4,1,24.4,1h7.8c1.7,0,20.9-0.3,23.7-1v7.9c-0.2-0.4-16.5-0.8-23.6-0.8v12.8c0,16.8,0.9,36.4,1.1,38.1H140z"/>
	<path id="XMLID_148_" class="st0" d="M194.9,78.7c0.5-2.1,0.6-26.2,0.6-39.4V27.8c-10,0-22.5,0.4-23.8,0.8v-7.9
		c2.5,0.7,23.4,1,24.4,1h7.8c1.7,0,20.9-0.3,23.7-1v7.9c-0.2-0.4-16.5-0.8-23.6-0.8v12.8c0,16.8,0.9,36.4,1.1,38.1H194.9z"/>
	<path id="XMLID_150_" class="st0" d="M270.9,79.6c-2.9,0-29.5-0.9-31.3-0.9c0.3-4.4,0.3-22.1,0.3-24v-11c0-1.4-0.2-21.3-0.3-22.8
		c2.1,0,25.2-1.3,29.5-1.6l0.4,7c-3.8,0-19.7,0.4-21.2,0.4v20.2c1.7,0,12.9-0.4,18.3-0.9l0.3,7.1c-1.5,0-5.6-0.1-9.7-0.2
		c-4,0-7.9-0.1-8.8-0.1v19.6c2.1,0,14,0.2,22.3-0.3L270.9,79.6z"/>
	<path id="XMLID_152_" class="st0" d="M299.7,53.4c0,3.1,0.3,24,0.5,25.3H291c0.3-1.9,0.2-28.2,0.2-29.9v-6.7
		c0-2.5-0.2-19.6-0.5-21.2c4.2,0,11.9-0.2,19.2,0.7c11.7,1.4,18.5,6.1,18.5,13.3c0,6.8-5.2,12.6-12.5,16.9
		c2.2,3,17.9,20.1,20.4,22.5l-6.7,5.9c-1-1.2-21-25.7-23.6-29.2c4.4-2.2,13.2-6.7,13.2-15c0-3.9-3-8.8-19.5-8.9V53.4z"/>
	<path id="XMLID_154_" class="st0" d="M349.9,73.2c9.5-1.9,21.7-6.8,21.7-14.7c0-4.9-3.1-7.4-10.1-11.2c-8.3-4.5-14-8.6-14-15.5
		c0-10.3,14.4-19.9,27.7-22.9l2,7.5c-5.9,1-20.3,5.6-20.3,13.8c0,5.1,6.9,8.2,11,10.6c7.4,4.4,13.3,7.5,13.3,15.4
		c0,9.5-10.1,19.9-28.8,24.3L349.9,73.2z"/>
	<path id="XMLID_156_" class="st0" d="M412.2,78.7c0.5-2.1,0.6-26.2,0.6-39.4V27.8c-10,0-22.5,0.4-23.8,0.8v-7.9
		c2.5,0.7,23.4,1,24.4,1h7.8c1.7,0,20.9-0.3,23.7-1v7.9c-0.2-0.4-16.5-0.8-23.6-0.8v12.8c0,16.8,0.9,36.4,1.1,38.1H412.2z"/>
</g>
<g id="XMLID_32_">
	<rect id="XMLID_142_" x="519.4" y="20.9" class="st1" width="123.2" height="68.6"/>
	<path id="XMLID_137_" class="st0" d="M573.4,79.4c-1.7,0.3-5.7,0.7-11.1,0.7c-30.1,0-37.5-16.5-37.5-24.5c0-14,13.2-30.8,43.4-36.2
		l1.4,7.4c-19.2,2.3-35.8,13-35.8,27.4c0,9.7,8.3,18.9,29.3,18.9c3.6,0,7.3-0.5,9.3-1L573.4,79.4z"/>
	<path id="XMLID_139_" class="st0" d="M588.8,79.6c0.2-2.4,0.5-16.4,0.5-25.9V45c0-7.2-0.5-23-0.5-25h9.3c-0.1,1.4-0.5,17-0.5,24.2
		V53c0,6.4,0.3,24.9,0.5,26.5H588.8z M629.4,79.5c-1.1-1.2-27.3-27.1-31.1-31.2c1.5-1.4,26.7-25,28.8-27.1l5.2,6.3
		c-3.5,2.7-19,15.8-23.8,20.2c2.7,3.2,23.5,22.1,27,25.2L629.4,79.5z"/>
</g>
<g id="XMLID_19_">
	<g id="XMLID_20_">
		<circle id="XMLID_31_" class="st0" cx="482.3" cy="52.3" r="32"/>
		<circle id="XMLID_30_" class="st2" cx="482.3" cy="52.3" r="34.5"/>
		<path id="XMLID_21_" class="st3" d="M510,47.7c-1.1-6.9-4.7-13-9.9-17.2c-2.8-2.3-6.1-4.1-9.7-5.1c-2.5-0.8-5.2-1.2-8-1.2
			c-3.4,0-6.7,0.6-9.7,1.8c-2.8,1-5.4,2.5-7.6,4.3c-5.4,4.3-9.2,10.5-10.3,17.6c-0.2,1.4-0.4,2.9-0.4,4.4c0,1.5,0.2,3,0.4,4.4
			c1.1,7.1,4.9,13.4,10.3,17.6c2.3,1.8,4.9,3.3,7.6,4.3c3,1.1,6.3,1.8,9.7,1.8c2.8,0,5.5-0.4,8-1.2c3.6-1.1,6.9-2.8,9.7-5.1
			c5.2-4.2,8.8-10.3,9.9-17.2c0.2-1.5,0.4-3,0.4-4.6C510.4,50.7,510.2,49.2,510,47.7z M491.7,57.7l-9.9,5.8l-8.7-5.5V46.5l8.7-5.5
			l9.9,5.8V57.7z M473.2,58V26.4 M481.8,63.5l-27.1-16.7 M491.7,57.7L464,73.6 M491.7,46.8v32 M481.8,41.1L510,56.8 M473.2,46.5
			l26.1-16.6"/>
	</g>
</g>
<g id="XMLID_43_">
</g>
<g id="XMLID_47_">
</g>
<g id="XMLID_159_">
</g>
<g id="XMLID_160_">
</g>
<g id="XMLID_161_">
</g>
<g id="XMLID_162_">
</g>
<g id="XMLID_163_">
</g>
<g id="XMLID_164_">
</g>
<g id="XMLID_165_">
</g>
<g id="XMLID_166_">
</g>
<g id="XMLID_167_">
</g>
<g id="XMLID_168_">
</g>
<g id="XMLID_169_">
</g>
<g id="XMLID_170_">
</g>
<g id="XMLID_171_">
</g>
</svg>
